<svg id="Lager_1" data-name="Lager 1" xmlns="http://www.w3.org/2000/svg" viewBox="0 0 172.38 29.39"><title>OCDNET_semibold</title><path d="M26.76,14.69q0,7-3.49,10.84T13.4,29.39q-6.47,0-9.93-3.83T0,14.65C0,9.93,1.16,6.32,3.49,3.79S9.13,0,13.44,0,21,1.28,23.28,3.85,26.76,10,26.76,14.69ZM5,14.69q0,5.26,2.13,8a7.53,7.53,0,0,0,6.31,2.72,7.51,7.51,0,0,0,6.28-2.7c1.41-1.79,2.12-4.47,2.12-8s-.7-6.16-2.1-8A7.43,7.43,0,0,0,13.44,4,7.59,7.59,0,0,0,7.1,6.72C5.67,8.53,5,11.18,5,14.69Z"/><path d="M45,4a7.71,7.71,0,0,0-6.33,2.85c-1.54,1.91-2.3,4.53-2.3,7.88q0,5.25,2.21,7.94A7.83,7.83,0,0,0,45,25.41a16.85,16.85,0,0,0,3.51-.36q1.71-.36,3.54-.93v4a21.36,21.36,0,0,1-7.62,1.27q-6.27,0-9.63-3.79T31.48,14.73a17.56,17.56,0,0,1,1.64-7.8,11.56,11.56,0,0,1,4.71-5.11A14.22,14.22,0,0,1,45.08,0a17.89,17.89,0,0,1,8.08,1.84L51.48,5.76a26.88,26.88,0,0,0-3-1.2A11.23,11.23,0,0,0,45,4Z"/><path d="M81.46,14.45q0,7.08-3.92,10.81T66.23,29h-8V.45h8.83q6.81,0,10.61,3.67T81.46,14.45Zm-4.92.16Q76.54,4.35,67,4.36h-4V25.08h3.32Q76.55,25.08,76.54,14.61Z"/><path d="M85.23,20.23v-3.9h10v3.9Z"/><path d="M124.26,29h-5.72L104.49,6.25h-.15l.09,1.27c.19,2.42.28,4.64.28,6.64V29h-4.24V.45h5.66l14,22.64h.11c0-.3-.07-1.39-.15-3.28s-.12-3.35-.12-4.4V.45h4.28Z"/><path d="M148,29H131.8V.45H148V4.39H136.47v7.78h10.76v3.9H136.47v9H148Z"/><path d="M164,29h-4.66V4.45h-8.4v-4h21.46v4H164Z"/></svg>