<svg id="Lager_1" data-name="Lager 1" xmlns="http://www.w3.org/2000/svg" viewBox="0 0 29.39 29.39"><defs><style>.cls-1{fill:#1f43cb;}.cls-2{fill:#fff;}</style></defs><title>O_bold</title><rect class="cls-1" width="29.39" height="29.39"/><path class="cls-2" d="M27,14.69q0,6.41-3.18,9.85T14.7,28q-5.94,0-9.11-3.44T2.41,14.65q0-6.43,3.19-9.84t9.13-3.39q6,0,9.1,3.42T27,14.69Zm-18.83,0q0,4.32,1.64,6.51a5.75,5.75,0,0,0,4.91,2.19q6.54,0,6.54-8.7T14.73,6a5.76,5.76,0,0,0-4.92,2.2C8.7,9.63,8.15,11.81,8.15,14.69Z"/></svg>