<svg id="Lager_1" data-name="Lager 1" xmlns="http://www.w3.org/2000/svg" viewBox="0 0 29.39 29.39"><defs><style>.cls-1{fill:#1f43cb;}.cls-2{fill:#fff;}</style></defs><title>O_regular</title><rect class="cls-1" width="29.39" height="29.39"/><path class="cls-2" d="M26.56,14.69q0,6.2-3.13,9.74A11,11,0,0,1,14.72,28Q9,28,5.93,24.49t-3.1-9.84q0-6.3,3.11-9.76t8.82-3.47q5.55,0,8.68,3.53T26.56,14.69ZM6,14.69q0,5.24,2.23,8a7.94,7.94,0,0,0,6.48,2.71,7.85,7.85,0,0,0,6.48-2.7c1.46-1.8,2.19-4.46,2.19-8s-.73-6.1-2.18-7.9A7.81,7.81,0,0,0,14.76,4.1,8,8,0,0,0,8.24,6.81C6.75,8.62,6,11.24,6,14.69Z"/></svg>