<svg id="Lager_1" data-name="Lager 1" xmlns="http://www.w3.org/2000/svg" viewBox="0 0 170.14 29.39"><title>OCDNET_regular</title><path d="M26.27,14.69q0,6.86-3.47,10.78t-9.64,3.92q-6.3,0-9.73-3.85T0,14.65q0-7,3.44-10.81T13.2,0q6.15,0,9.61,3.91T26.27,14.69Zm-22.75,0c0,3.86.82,6.8,2.47,8.8s4,3,7.17,3,5.56-1,7.17-3,2.42-4.93,2.42-8.81S22,7.93,20.34,6s-4-3-7.14-3S7.63,4,6,6,3.52,10.87,3.52,14.69Z"/><path d="M44.86,3a9.35,9.35,0,0,0-7.43,3.13q-2.72,3.14-2.72,8.59t2.62,8.66a9.33,9.33,0,0,0,7.49,3.06,25.41,25.41,0,0,0,6.82-1.08v2.91a21,21,0,0,1-7.32,1.11q-6.32,0-9.74-3.82T31.15,14.69A17.23,17.23,0,0,1,32.8,7a11.8,11.8,0,0,1,4.77-5.11A14.4,14.4,0,0,1,44.9,0a17.73,17.73,0,0,1,7.85,1.64l-1.4,2.85A15.23,15.23,0,0,0,44.86,3Z"/><path d="M80.66,14.45q0,7.08-3.83,10.81T65.78,29H57.87V.45h8.75Q73.28.45,77,4.14T80.66,14.45Zm-3.51.12c0-3.72-.94-6.53-2.8-8.42S69.7,3.32,66,3.32H61.19V26.13h4q5.94,0,8.93-2.92T77.15,14.57Z"/><path d="M84.75,19.77v-3h9.59v3Z"/><path d="M122.21,29h-3.79L102.81,5h-.15c.2,2.81.31,5.39.31,7.73V29H99.9V.45h3.75l15.57,23.87h.16q0-.54-.18-3.39c-.09-1.91-.13-3.27-.1-4.09V.45h3.11Z"/><path d="M146,29H130.06V.45H146V3.4h-12.6v9.2h11.84v2.93H133.38V26H146Z"/><path d="M161.09,29h-3.32V3.4h-9V.45h21.41V3.4h-9Z"/></svg>