<svg id="Lager_1" data-name="Lager 1" xmlns="http://www.w3.org/2000/svg" viewBox="0 0 172.83 29.07"><title>OCDNET_bold</title><path d="M26.89,14.52q0,7-3.48,10.78t-10,3.77c-4.32,0-7.65-1.26-10-3.77S0,19.19,0,14.49,1.16,6.2,3.49,3.72,9.14,0,13.48,0s7.66,1.25,10,3.75S26.89,9.84,26.89,14.52Zm-20.61,0q0,4.74,1.79,7.13a6.29,6.29,0,0,0,5.37,2.4q7.17,0,7.17-9.53T13.48,5A6.32,6.32,0,0,0,8.09,7.39Q6.28,9.79,6.28,14.52Z"/><path d="M44.73,5A6.11,6.11,0,0,0,39.5,7.56a11.8,11.8,0,0,0-1.86,7.08q0,9.45,7.09,9.45a22.46,22.46,0,0,0,7.21-1.49v5a20,20,0,0,1-7.77,1.45c-4.1,0-7.25-1.25-9.42-3.74s-3.27-6.07-3.27-10.73a17.47,17.47,0,0,1,1.61-7.71,11.48,11.48,0,0,1,4.6-5.08,13.61,13.61,0,0,1,7-1.77A18.94,18.94,0,0,1,53,2L51.07,6.9a32.07,32.07,0,0,0-3.19-1.32A9.61,9.61,0,0,0,44.73,5Z"/><path d="M81.37,14.29q0,7-4,10.68T65.94,28.68h-8V.44h8.87q6.91,0,10.74,3.65T81.37,14.29Zm-6.22.16q0-9.1-8-9.1H63.93V23.74H66.5Q75.16,23.74,75.15,14.45Z"/><path d="M84.85,20.49V15.66H95.22v4.83Z"/><path d="M125,28.68H117.4L105.11,7.32h-.17c.24,3.77.37,6.46.37,8.07V28.68H100V.44h7.56l12.26,21.15h.14c-.2-3.67-.29-6.26-.29-7.78V.44H125Z"/><path d="M148.38,28.68H132.11V.44h16.27V5.35H138.1v6.2h9.56v4.91H138.1v7.28h10.28Z"/><path d="M165.16,28.68h-6V5.43h-7.66v-5h21.32v5h-7.67Z"/></svg>