<svg id="Lager_1" data-name="Lager 1" xmlns="http://www.w3.org/2000/svg" viewBox="0 0 29.39 29.39"><defs><style>.cls-1{fill:#1f43cb;}.cls-2{fill:#fff;}</style></defs><title>O_semibold</title><rect class="cls-1" width="29.39" height="29.39"/><path class="cls-2" d="M26.79,14.69q0,6.3-3.15,9.79T14.71,28q-5.84,0-9-3.47T2.61,14.65q0-6.39,3.15-9.81t9-3.42q5.76,0,8.89,3.47T26.79,14.69Zm-19.7,0q0,4.76,1.92,7.22a6.79,6.79,0,0,0,5.7,2.47,6.8,6.8,0,0,0,5.68-2.44q1.91-2.43,1.91-7.25t-1.89-7.2A6.7,6.7,0,0,0,14.75,5,6.84,6.84,0,0,0,9,7.49C7.74,9.12,7.09,11.52,7.09,14.69Z"/></svg>